<svg xmlns="http://www.w3.org/2000/svg" width="296" height="193" fill="none" viewBox="0 0 296 193"><path fill="url(#paint0_linear_3209_966)" d="M425.654 6.46167L294.536 193.706L238.408 6.46167H425.654Z"/><path fill="url(#paint1_linear_3209_966)" d="M163.76 113.04L86.0656 122.881L8.34619 132.687L64.8196 52.0242L163.76 113.04Z"/><path fill="url(#paint2_linear_3209_966)" d="M294.536 193.706H107.29L64.8196 52.0242L163.76 113.04L294.536 193.706Z"/><path fill="url(#paint3_linear_3209_966)" d="M294.536 193.706H107.29L238.408 6.46167L294.536 193.706Z"/><path fill="#15468D" d="M64.8196 52.0242L86.0488 122.881L82.1462 123.173L64.8196 52.0242Z"/><path fill="#15468D" d="M107.29 193.706L163.76 113.057L160.438 110.987L107.29 193.706Z"/><path fill="#4DBCED" d="M294.536 193.706L244.559 6.46167H238.408L294.536 193.706Z"/><defs><linearGradient id="paint0_linear_3209_966" x1="251.035" x2="433.766" y1="100.087" y2="100.087" gradientUnits="userSpaceOnUse"><stop stop-color="#329FD9"/><stop offset="1" stop-color="#15468D"/></linearGradient><linearGradient id="paint1_linear_3209_966" x1="59.642" x2="131.861" y1="157.467" y2="58.441" gradientUnits="userSpaceOnUse"><stop stop-color="#329FD9"/><stop offset="1" stop-color="#15468D"/></linearGradient><linearGradient id="paint2_linear_3209_966" x1="41.29" x2="165.479" y1="92.45" y2="171.23" gradientUnits="userSpaceOnUse"><stop stop-color="#329FD9"/><stop offset="1" stop-color="#15468D"/></linearGradient><linearGradient id="paint3_linear_3209_966" x1="200.909" x2="200.909" y1="192.579" y2="6.559" gradientUnits="userSpaceOnUse"><stop stop-color="#329FD9"/><stop offset="1" stop-color="#15468D"/></linearGradient></defs></svg>