<svg xmlns="http://www.w3.org/2000/svg" width="24" height="24" fill="none" viewBox="0 0 24 24"><rect width="20" height="20" x="2" y="2" fill="currentColor" opacity=".3" rx="10"/><path fill="currentColor" d="M12.4343 12.4343L10.75 10.75C10.3358 10.3358 9.66421 10.3358 9.25 10.75C8.83579 11.1642 8.83579 11.8358 9.25 12.25L12.2929 15.2929C12.6834 15.6834 13.3166 15.6834 13.7071 15.2929L19.25 9.75C19.6642 9.33579 19.6642 8.66421 19.25 8.25C18.8358 7.83579 18.1642 7.83579 17.75 8.25L13.5657 12.4343C13.2533 12.7467 12.7467 12.7467 12.4343 12.4343Z" opacity=".5"/><path fill="currentColor" d="M8.43431 12.4343L6.75 10.75C6.33579 10.3358 5.66421 10.3358 5.25 10.75C4.83579 11.1642 4.83579 11.8358 5.25 12.25L8.29289 15.2929C8.68342 15.6834 9.31658 15.6834 9.70711 15.2929L15.25 9.75C15.6642 9.33579 15.6642 8.66421 15.25 8.25C14.8358 7.83579 14.1642 7.83579 13.75 8.25L9.56569 12.4343C9.25327 12.7467 8.74673 12.7467 8.43431 12.4343Z"/></svg>